<?xml version="1.0" encoding="UTF-8"?>
<!DOCTYPE svg PUBLIC "-//W3C//DTD SVG 1.1//EN" "http://www.w3.org/Graphics/SVG/1.1/DTD/svg11.dtd">
<svg xmlns="http://www.w3.org/2000/svg" version="1.1" width="1024px" height="1024px" style="shape-rendering:geometricPrecision; text-rendering:geometricPrecision; image-rendering:optimizeQuality; fill-rule:evenodd; clip-rule:evenodd" xmlns:xlink="http://www.w3.org/1999/xlink">
<g><path style="opacity:1" fill="#fefefe" d="M -0.5,-0.5 C 340.833,-0.5 682.167,-0.5 1023.5,-0.5C 1023.5,340.833 1023.5,682.167 1023.5,1023.5C 682.167,1023.5 340.833,1023.5 -0.5,1023.5C -0.5,682.167 -0.5,340.833 -0.5,-0.5 Z"/></g>
<g><path style="opacity:1" fill="#587ea2" d="M 287.5,230.5 C 282.13,230.392 276.797,230.725 271.5,231.5C 274.356,229.994 277.523,229.328 281,229.5C 283.361,229.504 285.527,229.837 287.5,230.5 Z"/></g>
<g><path style="opacity:1" fill="#034075" d="M 287.5,230.5 C 300.139,232.969 308.639,240.302 313,252.5C 316.118,277.039 305.451,290.705 281,293.5C 265.779,292.301 255.779,284.301 251,269.5C 247.875,255.873 251.708,244.706 262.5,236C 265.243,233.962 268.243,232.462 271.5,231.5C 276.797,230.725 282.13,230.392 287.5,230.5 Z"/></g>
<g><path style="opacity:1" fill="#7596b3" d="M 434.5,259.5 C 424.815,259.422 415.148,259.755 405.5,260.5C 411.092,259.007 416.926,258.341 423,258.5C 427.015,258.501 430.849,258.835 434.5,259.5 Z"/></g>
<g><path style="opacity:1" fill="#044075" d="M 434.5,259.5 C 485.293,264.298 523.46,288.632 549,332.5C 559.542,352.872 564.875,374.539 565,397.5C 561.498,409.843 553.331,415.01 540.5,413C 534.18,410.014 530.013,405.181 528,398.5C 528.073,389.613 526.907,380.946 524.5,372.5C 524.59,369.848 523.924,367.515 522.5,365.5C 507.793,327.124 480.127,304.291 439.5,297C 391.236,293.38 355.736,312.88 333,355.5C 314.858,403.765 325.025,444.931 363.5,479C 384.55,494.485 408.217,501.819 434.5,501C 445.352,505.2 449.518,513.034 447,524.5C 443.911,531.256 438.745,535.423 431.5,537C 370.535,536.943 326.368,509.776 299,455.5C 274.665,392.162 287.165,337.329 336.5,291C 356.578,274.296 379.578,264.129 405.5,260.5C 415.148,259.755 424.815,259.422 434.5,259.5 Z"/></g>
<g><path style="opacity:1" fill="#fa8d65" d="M 590.5,297.5 C 589.391,296.71 588.058,296.21 586.5,296C 580.175,295.5 573.842,295.334 567.5,295.5C 559.404,294.244 554.237,289.578 552,281.5C 550.714,270.577 555.214,263.077 565.5,259C 624.695,258.171 668.862,283.338 698,334.5C 720.57,384.494 716.903,432.494 687,478.5C 655.907,519.625 614.407,539.125 562.5,537C 514.791,531.401 478.291,508.234 453,467.5C 440.393,445.123 434.393,421.123 435,395.5C 441.187,382.493 450.687,379.327 463.5,386C 466.762,388.592 469.262,391.759 471,395.5C 474.242,448.871 501.409,483.038 552.5,498C 589.559,503.868 621.393,493.701 648,467.5C 676.238,434.304 682.571,397.304 667,356.5C 651.222,324.221 625.722,304.554 590.5,297.5 Z"/></g>
<g><path style="opacity:1" fill="#fcb59b" d="M 567.5,295.5 C 573.842,295.334 580.175,295.5 586.5,296C 588.058,296.21 589.391,296.71 590.5,297.5C 582.672,297.014 575.006,296.347 567.5,295.5 Z"/></g>
<g><path style="opacity:1" fill="#b0c2d3" d="M 522.5,365.5 C 523.924,367.515 524.59,369.848 524.5,372.5C 523.076,370.485 522.41,368.152 522.5,365.5 Z"/></g>
<g><path style="opacity:1" fill="#fa8d65" d="M 710.5,502.5 C 736.374,501.543 749.207,513.877 749,539.5C 743.985,558.84 731.485,567.674 711.5,566C 692.07,559.988 683.57,546.822 686,526.5C 690.12,514.212 698.286,506.212 710.5,502.5 Z"/></g>
<g><path style="opacity:1" fill="#fa8d66" d="M 937.5,546.5 C 943.563,545.838 949.23,547.004 954.5,550C 957.931,553.222 959.265,557.222 958.5,562C 957.546,577.435 954.046,592.269 948,606.5C 942.402,618.008 933.902,620.675 922.5,614.5C 922.167,613.167 921.833,611.833 921.5,610.5C 924.434,590.227 926.934,569.894 929,549.5C 931.87,548.307 934.704,547.307 937.5,546.5 Z"/></g>
<g><path style="opacity:1" fill="#044075" d="M 243.5,624.5 C 244.245,634.148 244.578,643.815 244.5,653.5C 242.435,698.047 220.102,726.547 177.5,739C 147.496,745.339 120.163,739.673 95.5,722C 73.5205,700.584 63.1872,674.417 64.5,643.5C 63.4495,608.435 77.1162,580.935 105.5,561C 132.121,547.032 159.787,544.698 188.5,554C 220.156,567.151 238.489,590.651 243.5,624.5 Z"/></g>
<g><path style="opacity:1" fill="#fdfefe" d="M 206.5,613.5 C 206.41,616.152 207.076,618.485 208.5,620.5C 209.185,622.414 209.685,624.414 210,626.5C 210.667,638.167 210.667,649.833 210,661.5C 203.827,699.332 181.66,716.666 143.5,713.5C 141.485,712.076 139.152,711.41 136.5,711.5C 120.679,706.515 109.845,696.181 104,680.5C 99.0476,665.907 97.2142,650.907 98.5,635.5C 99.9715,631.081 100.638,626.414 100.5,621.5C 108.407,588.269 129.407,573.269 163.5,576.5C 185.562,579.898 199.895,592.231 206.5,613.5 Z"/></g>
<g><path style="opacity:1" fill="#034075" d="M 400.5,627.5 C 400.464,663.633 400.464,699.966 400.5,736.5C 399.391,736.557 398.391,736.89 397.5,737.5C 392.203,738.275 386.87,738.608 381.5,738.5C 374.8,738.297 370.633,734.964 369,728.5C 368.979,695.439 368.312,662.439 367,629.5C 360.348,620.104 351.181,615.771 339.5,616.5C 330.013,616.552 321.347,619.218 313.5,624.5C 312.5,661.827 312.167,699.161 312.5,736.5C 303.894,738.912 295.227,739.079 286.5,737C 283.8,735.143 282.134,732.643 281.5,729.5C 281.191,691.143 281.524,652.809 282.5,614.5C 283.906,611.586 285.906,609.086 288.5,607C 316.396,588.641 345.729,585.975 376.5,599C 379.939,601.139 383.106,603.639 386,606.5C 404.543,592.443 425.376,587.61 448.5,592C 462.472,594.396 473.639,601.229 482,612.5C 484.973,617.079 486.973,622.079 488,627.5C 488.833,663.838 488.667,700.171 487.5,736.5C 480.274,738.348 472.941,738.848 465.5,738C 461.763,736.719 459.263,734.219 458,730.5C 457.667,699.167 457.333,667.833 457,636.5C 455.737,628.13 451.237,622.297 443.5,619C 427.363,613.471 413.029,616.304 400.5,627.5 Z"/></g>
<g><path style="opacity:1" fill="#054175" d="M 558.5,737.5 C 553.203,738.275 547.87,738.608 542.5,738.5C 536.812,737.989 532.979,734.989 531,729.5C 530.333,692.167 530.333,654.833 531,617.5C 533.365,611.798 537.199,607.298 542.5,604C 551.803,598.4 561.803,594.9 572.5,593.5C 576.36,593.192 580.026,592.525 583.5,591.5C 596.282,589.933 608.948,590.766 621.5,594C 643.049,600.209 655.215,614.375 658,636.5C 658.667,669.833 658.667,703.167 658,736.5C 656.601,737.227 655.101,737.727 653.5,738C 647.167,738.667 640.833,738.667 634.5,738C 630.667,736.833 628.167,734.333 627,730.5C 626.667,699.5 626.333,668.5 626,637.5C 624.042,628.207 618.542,622.04 609.5,619C 593.401,614.464 578.067,616.298 563.5,624.5C 562.833,661.833 562.167,699.167 561.5,736.5C 560.583,737.127 559.583,737.461 558.5,737.5 Z"/></g>
<g><path style="opacity:1" fill="#034075" d="M 905.5,632.5 C 905.41,635.152 906.076,637.485 907.5,639.5C 911.264,655.969 911.43,672.635 908,689.5C 900.471,719.031 881.638,735.864 851.5,740C 836.904,741.983 822.904,740.15 809.5,734.5C 809.44,733.957 809.107,733.624 808.5,733.5C 807.5,752.822 807.167,772.155 807.5,791.5C 800.265,793.279 792.932,793.779 785.5,793C 781.725,791.558 778.892,789.058 777,785.5C 776.333,728.167 776.333,670.833 777,613.5C 783.128,605.676 790.961,600.176 800.5,597C 805.007,595.107 809.673,593.941 814.5,593.5C 817.152,593.59 819.485,592.924 821.5,591.5C 844.411,588.64 865.744,593.14 885.5,605C 889.667,609.167 893.833,613.333 898,617.5C 901.038,622.243 903.538,627.243 905.5,632.5 Z"/></g>
<g><path style="opacity:1" fill="#4b739a" d="M 583.5,591.5 C 580.026,592.525 576.36,593.192 572.5,593.5C 575.845,591.783 579.511,591.116 583.5,591.5 Z"/></g>
<g><path style="opacity:1" fill="#547a9f" d="M 821.5,591.5 C 819.485,592.924 817.152,593.59 814.5,593.5C 816.515,592.076 818.848,591.41 821.5,591.5 Z"/></g>
<g><path style="opacity:1" fill="#013f74" d="M 732.5,604.5 C 732.828,648.905 732.494,693.239 731.5,737.5C 731.167,737.5 730.833,737.5 730.5,737.5C 724.536,738.307 718.536,738.64 712.5,738.5C 707.738,738.037 704.238,735.704 702,731.5C 701.167,686.163 701.333,640.83 702.5,595.5C 711.41,592.404 720.076,592.904 728.5,597C 731.024,598.883 732.358,601.383 732.5,604.5 Z"/></g>
<g><path style="opacity:1" fill="#a4bacd" d="M 732.5,604.5 C 733.167,626.497 733.5,648.664 733.5,671C 733.5,693.51 732.833,715.677 731.5,737.5C 732.494,693.239 732.828,648.905 732.5,604.5 Z"/></g>
<g><path style="opacity:1" fill="#abbed0" d="M 206.5,613.5 C 207.924,615.515 208.59,617.848 208.5,620.5C 207.076,618.485 206.41,616.152 206.5,613.5 Z"/></g>
<g><path style="opacity:1" fill="#fdfdfe" d="M 808.5,707.5 C 808.176,679.426 808.509,651.426 809.5,623.5C 817.076,618.211 825.576,615.877 835,616.5C 864.21,618.048 878.71,633.548 878.5,663C 879.292,702.405 860.292,719.405 821.5,714C 816.861,712.347 812.528,710.181 808.5,707.5 Z"/></g>
<g><path style="opacity:1" fill="#2c5f8b" d="M 282.5,614.5 C 281.524,652.809 281.191,691.143 281.5,729.5C 280.336,692.336 280.169,655.002 281,617.5C 281.232,616.263 281.732,615.263 282.5,614.5 Z"/></g>
<g><path style="opacity:1" fill="#bacbda" d="M 809.5,623.5 C 808.509,651.426 808.176,679.426 808.5,707.5C 807.833,693.671 807.5,679.671 807.5,665.5C 807.501,651.15 808.167,637.15 809.5,623.5 Z"/></g>
<g><path style="opacity:1" fill="#becddb" d="M 100.5,621.5 C 100.638,626.414 99.9715,631.081 98.5,635.5C 98.3618,630.586 99.0285,625.919 100.5,621.5 Z"/></g>
<g><path style="opacity:1" fill="#4d7299" d="M 905.5,632.5 C 906.924,634.515 907.59,636.848 907.5,639.5C 906.076,637.485 905.41,635.152 905.5,632.5 Z"/></g>
<g><path style="opacity:1" fill="#bacad9" d="M 400.5,627.5 C 401.811,663.98 401.811,700.313 400.5,736.5C 400.464,699.966 400.464,663.633 400.5,627.5 Z"/></g>
<g><path style="opacity:1" fill="#8ca7bf" d="M 243.5,624.5 C 244.953,630.267 245.62,636.267 245.5,642.5C 245.499,646.349 245.165,650.016 244.5,653.5C 244.578,643.815 244.245,634.148 243.5,624.5 Z"/></g>
<g><path style="opacity:1" fill="#a1b7cb" d="M 136.5,711.5 C 139.152,711.41 141.485,712.076 143.5,713.5C 140.848,713.59 138.515,712.924 136.5,711.5 Z"/></g>
<g><path style="opacity:1" fill="#7d9cb7" d="M 809.5,734.5 C 808.833,753.5 808.167,772.5 807.5,791.5C 807.167,772.155 807.5,752.822 808.5,733.5C 809.107,733.624 809.44,733.957 809.5,734.5 Z"/></g>
<g><path style="opacity:1" fill="#c0cfdd" d="M 397.5,737.5 C 394.644,739.006 391.477,739.672 388,739.5C 385.639,739.496 383.473,739.163 381.5,738.5C 386.87,738.608 392.203,738.275 397.5,737.5 Z"/></g>
<g><path style="opacity:1" fill="#bdcddb" d="M 558.5,737.5 C 558.082,738.222 557.416,738.722 556.5,739C 551.648,739.815 546.981,739.648 542.5,738.5C 547.87,738.608 553.203,738.275 558.5,737.5 Z"/></g>
<g><path style="opacity:1" fill="#b0c3d4" d="M 730.5,737.5 C 727.305,739.03 723.805,739.696 720,739.5C 717.31,739.497 714.81,739.164 712.5,738.5C 718.536,738.64 724.536,738.307 730.5,737.5 Z"/></g>
</svg>
